<svg xmlns="http://www.w3.org/2000/svg" fill="#FDBF30" enable-background="new 0 0 60 60" viewBox="0 0 60 60"><path d="M33.7,15c0.5-0.7,0.8-1.6,0.8-2.6c0-0.6-0.1-1.1-0.3-1.6l4.3-3c0.5-0.3,0.6-0.9,0.3-1.4c-0.3-0.5-0.9-0.6-1.4-0.3l-4.3,3 c-0.8-0.8-1.9-1.3-3.2-1.3c-1.2,0-2.3,0.5-3.2,1.3l-4.3-3c-0.5-0.3-1.1-0.2-1.4,0.3c-0.3,0.5-0.2,1.1,0.3,1.4l4.3,3 c-0.2,0.5-0.3,1-0.3,1.6c0,1,0.3,1.8,0.8,2.6c-3.8,0.4-6.7,3.6-6.7,7.4v17.8c0,3.3,2.1,6.1,5.1,7.1v-5.9c0-3,2.4-5.3,5.4-5.3 s5.4,2.4,5.4,5.3v5.9c3-1,5.1-3.8,5.1-7.1V22.4C40.4,18.5,37.5,15.4,33.7,15z M35.5,23.1c-1.9,3.3-3.7,5-5.7,5c0,0-0.1,0-0.1,0 c-1.9-0.1-3.7-1.7-5.3-5c-0.2-0.3-0.1-0.7,0.1-1c0.2-0.3,0.5-0.5,0.8-0.5h9.3c0.4,0,0.7,0.2,0.9,0.5S35.7,22.8,35.5,23.1z"/><path d="M30,38c-1.8,0-3.3,1.5-3.3,3.3v9.3c0,1.9,1.5,3.4,3.3,3.4s3.3-1.5,3.3-3.4v-9.3C33.3,39.5,31.8,38,30,38z"/></svg>