<svg xmlns="http://www.w3.org/2000/svg" enable-background="new 0 0 64 64" viewBox="0 0 64 64"><path fill="#6b6ba5" d="M63.8,20.71c-0.3-0.79-0.89-1.43-1.66-1.78c-0.78-0.35-1.64-0.38-2.44-0.08l-15.03,5.62 c-0.79,0.3-1.42,0.89-1.78,1.66c-0.23,0.52-0.31,1.09-0.26,1.64l-6.51,2.49v-1.21c0-0.54-0.44-0.97-0.97-0.97H0.97 C0.43,28.08,0,28.51,0,29.05v18.47c0,3.08,2.51,5.59,5.59,5.59h24.94c3.08,0,5.59-2.51,5.59-5.59V32.29 c0.07-0.01,0.14-0.01,0.21-0.03l7.08-2.71c0.29,0.33,0.65,0.61,1.06,0.8c0.42,0.19,0.87,0.29,1.32,0.29c0.38,0,0.75-0.07,1.12-0.21 l15.02-5.62C63.58,24.19,64.41,22.35,63.8,20.71z M34.18,47.52c0,2.01-1.64,3.65-3.65,3.65H5.59c-2.02,0-3.65-1.64-3.65-3.65v-17.5 h32.24V47.52z M61.25,22.99l-15.02,5.63c-0.65,0.24-1.36-0.09-1.6-0.73c-0.12-0.31-0.11-0.65,0.03-0.95 c0.14-0.31,0.38-0.54,0.69-0.65l15.03-5.63c0.14-0.05,0.29-0.08,0.44-0.08c0.17,0,0.35,0.04,0.51,0.12 c0.3,0.13,0.53,0.38,0.65,0.69C62.22,22.03,61.9,22.75,61.25,22.99z"/><path fill="#e6edf6" d="M61.25,22.99l-15.02,5.63c-0.65,0.24-1.36-0.09-1.6-0.73c-0.12-0.31-0.11-0.65,0.03-0.95 c0.14-0.31,0.38-0.54,0.69-0.65l15.03-5.63c0.14-0.05,0.29-0.08,0.44-0.08c0.17,0,0.35,0.04,0.51,0.12 c0.3,0.13,0.53,0.38,0.65,0.69C62.22,22.03,61.9,22.75,61.25,22.99z"/><path fill="#c8d5e4" d="M61.25,22.99l-5.56,2.09c0.52-0.31,0.76-0.95,0.54-1.52c-0.12-0.31-0.35-0.56-0.65-0.69 c-0.16-0.08-0.34-0.12-0.51-0.12c-0.15,0-0.3,0.03-0.44,0.08l-9.48,3.55c0.06-0.03,0.13-0.07,0.2-0.09l15.03-5.63 c0.14-0.05,0.29-0.08,0.44-0.08c0.17,0,0.35,0.04,0.51,0.12c0.3,0.13,0.53,0.38,0.65,0.69C62.22,22.03,61.9,22.75,61.25,22.99z"/><path fill="#e6edf6" d="M34.18,30.02v17.5c0,2.01-1.64,3.65-3.65,3.65H5.59c-2.02,0-3.65-1.64-3.65-3.65v-17.5H34.18z"/><path fill="#c8d5e4" d="M34.18,30.02v17.5c0,2.01-1.76,3.65-3.92,3.65H19.33c0.03-0.2,0.04-0.42,0.04-0.63V30.02H34.18z"/><path fill="#6b6ba5" d="M17.54 22.2c-.41.34-.48.95-.14 1.36.19.23.47.36.75.36.21 0 .43-.07.61-.22 2.15-1.76 2.2-4.3.12-6.97-1.53-1.96-1.71-2.7-.09-4.15.4-.36.43-.97.08-1.37-.36-.4-.97-.43-1.37-.08-2.95 2.64-1.69 4.8-.15 6.79C19.46 20.63 18.01 21.81 17.54 22.2zM24.27 22.2c-.41.34-.48.95-.14 1.36.19.23.47.36.75.36.22 0 .43-.07.61-.22 1.59-1.3 1.64-3.23.13-5.17-1-1.29-1.02-1.58-.1-2.4.4-.36.43-.97.08-1.37-.36-.4-.97-.43-1.37-.08-2.21 1.97-1.23 3.64-.14 5.04C25.34 21.32 24.56 21.96 24.27 22.2zM10.75 22.2c-.41.34-.48.95-.14 1.36.19.23.47.36.75.36.22 0 .43-.07.61-.22 1.59-1.3 1.64-3.23.13-5.17-1-1.29-1.02-1.58-.1-2.4.4-.36.43-.97.08-1.37-.36-.4-.97-.43-1.37-.08-2.21 1.97-1.23 3.64-.14 5.04C11.82 21.32 11.04 21.96 10.75 22.2z"/></svg>