<svg xmlns="http://www.w3.org/2000/svg" viewBox="0 0 24 24"><path fill="#FDBF30" d="M23 9h-2v-.5C21 6.57 19.43 5 17.5 5h-4.092c.056-.157.092-.324.092-.5 0-.827-.673-1.5-1.5-1.5s-1.5.673-1.5 1.5c0 .176.036.343.092.5H6.5C4.57 5 3 6.57 3 8.5V9H1c-.552 0-1 .449-1 1v.43c0 .838.416 1.615 1.113 2.08L3 13.768V17.5C3 19.43 4.57 21 6.5 21h11c1.93 0 3.5-1.57 3.5-3.5v-3.732l1.887-1.258A2.495 2.495 0 0 0 24 10.43V10c0-.551-.448-1-1-1zM3 12.566l-1.332-.888A1.498 1.498 0 0 1 1 10.43V10h2v2.566zM12 5a.5.5 0 1 1 .001-1.001A.5.5 0 0 1 12 5zm11 5.43c0 .502-.25.969-.668 1.248L21 12.566V10h2v.43z"/><path fill="#FDBF30" d="M6.5 6h11c1.208 0 2.217.86 2.45 2H4.05c.233-1.14 1.242-2 2.45-2zM20 17.5c0 1.378-1.121 2.5-2.5 2.5h-11A2.503 2.503 0 014 17.5V9h16v8.5z"/><path d="M19.95 8a2.504 2.504 0 00-2.45-2h-1v2h3.45zM16.5 9v5.5c0 1.378-1.121 2.5-2.5 2.5H4v.5C4 18.878 5.121 20 6.5 20h11c1.379 0 2.5-1.122 2.5-2.5V9h-3.5z" opacity=".1"/><linearGradient id="a" x1=".909" x2="21.413" y1="7.828" y2="17.389" gradientUnits="userSpaceOnUse"><stop offset="0" stop-color="#FFF" stop-opacity=".2"/><stop offset="1" stop-color="#FFF" stop-opacity="0"/></linearGradient><path fill="url(#a)" d="M23 9h-2v-.5C21 6.57 19.43 5 17.5 5h-4.092c.056-.157.092-.324.092-.5 0-.827-.673-1.5-1.5-1.5s-1.5.673-1.5 1.5c0 .176.036.343.092.5H6.5C4.57 5 3 6.57 3 8.5V9H1c-.552 0-1 .449-1 1v.43c0 .838.416 1.615 1.113 2.08L3 13.768V17.5C3 19.43 4.57 21 6.5 21h11c1.93 0 3.5-1.57 3.5-3.5v-3.732l1.887-1.258A2.495 2.495 0 0 0 24 10.43V10c0-.551-.448-1-1-1zM3 12.566l-1.332-.888A1.498 1.498 0 0 1 1 10.43V10h2v2.566zM12 5a.5.5 0 1 1 .001-1.001A.5.5 0 0 1 12 5zm11 5.43c0 .502-.25.969-.668 1.248L21 12.566V10h2v.43z"/></svg>